<?xml version="1.0"?>
<svg xmlns="http://www.w3.org/2000/svg" viewBox="0 0 24 24" width="24px" height="24px">
    <path d="M 3 2 C 1.895 2 1 2.895 1 4 L 1 16 C 1 17.105 1.895 18 3 18 L 10 18 L 10 20 L 8 20 L 8 22 L 16 22 L 16 20 L 14 20 L 14 18 L 21 18 C 22.105 18 23 17.105 23 16 L 23 4 C 23 2.895 22.105 2 21 2 L 3 2 z M 3 4 L 21 4 L 21 16 L 3 16 L 3 4 z M 5 6 L 5 7 L 5 14 L 10 14 L 10 6 L 5 6 z M 12 6 L 12 7 L 12 14 L 19 14 L 19 6 L 12 6 z M 7 8 L 8 8 L 8 12 L 7 12 L 7 8 z M 14 8 L 17 8 L 17 12 L 14 12 L 14 8 z"/>
</svg>
