<?xml version="1.0" encoding="UTF-8"?>
<svg xmlns="http://www.w3.org/2000/svg" xmlns:xlink="http://www.w3.org/1999/xlink" viewBox="0 0 48 48" version="1.1" width="48px" height="48px">
<g id="surface1">
<path style=" fill:#BBDEFB;" d="M 27 17.5 C 27 22.195313 23.195313 26 18.5 26 C 13.804688 26 10 22.195313 10 17.5 C 10 12.804688 13.804688 9 18.5 9 C 23.195313 9 27 12.804688 27 17.5 Z "/>
<path style=" fill:#BBDEFB;" d="M 26 32 C 26 35.867188 22.867188 39 19 39 C 15.132813 39 12 35.867188 12 32 C 12 28.132813 15.132813 25 19 25 C 22.867188 25 26 28.132813 26 32 Z "/>
<path style=" fill:#BBDEFB;" d="M 18 26 C 18 29.867188 14.867188 33 11 33 C 7.132813 33 4 29.867188 4 26 C 4 22.132813 7.132813 19 11 19 C 14.867188 19 18 22.132813 18 26 Z "/>
<path style=" fill:#BBDEFB;" d="M 44 25 C 44 28.3125 41.3125 31 38 31 C 34.6875 31 32 28.3125 32 25 C 32 21.6875 34.6875 19 38 19 C 41.3125 19 44 21.6875 44 25 Z "/>
<path style=" fill:#BBDEFB;" d="M 36 30 C 36 33.3125 33.3125 36 30 36 C 26.6875 36 24 33.3125 24 30 C 24 26.6875 26.6875 24 30 24 C 33.3125 24 36 26.6875 36 30 Z "/>
<path style=" fill:#BBDEFB;" d="M 37 18.5 C 37 22.089844 34.089844 25 30.5 25 C 26.910156 25 24 22.089844 24 18.5 C 24 14.910156 26.910156 12 30.5 12 C 34.089844 12 37 14.910156 37 18.5 Z "/>
<path style=" fill:#BBDEFB;" d="M 30 24 C 30 27.867188 26.867188 31 23 31 C 19.132813 31 16 27.867188 16 24 C 16 20.132813 19.132813 17 23 17 C 26.867188 17 30 20.132813 30 24 Z "/>
</g>
</svg>
