<?xml version="1.0" encoding="iso-8859-1"?>
<!-- Generator: Adobe Illustrator 22.1.0, SVG Export Plug-In . SVG Version: 6.00 Build 0)  -->
<svg xmlns="http://www.w3.org/2000/svg" xmlns:xlink="http://www.w3.org/1999/xlink" version="1.1" id="Layer_1" x="0px" y="0px" viewBox="0 0 48 48" style="enable-background:new 0 0 48 48;" xml:space="preserve" width="48px" height="48px">
<polygon style="fill:#E1F5FE;" points="38.5,14 29,14 29,4.5 "/>
<polygon style="fill:#C8E6C9;" points="40,45 8,45 8,3 30,3 40,13 "/>
<polygon style="fill:#F1F8E9;" points="38.5,14 29,14 29,4.5 "/>
<rect x="13" y="8" style="fill:#A5D6A7;" width="6" height="2"/>
<rect x="21" y="8" style="fill:#A5D6A7;" width="6" height="2"/>
<rect x="13" y="12" style="fill:#A5D6A7;" width="6" height="2"/>
<rect x="21" y="12" style="fill:#A5D6A7;" width="6" height="2"/>
<rect x="13" y="34" style="fill:#A5D6A7;" width="6" height="2"/>
<rect x="21" y="34" style="fill:#A5D6A7;" width="6" height="2"/>
<rect x="13" y="38" style="fill:#A5D6A7;" width="6" height="2"/>
<rect x="21" y="38" style="fill:#A5D6A7;" width="6" height="2"/>
<rect x="29" y="34" style="fill:#A5D6A7;" width="6" height="2"/>
<rect x="29" y="38" style="fill:#A5D6A7;" width="6" height="2"/>
<rect x="8" y="16" style="fill:#5E9C76;" width="32" height="16"/>
<path style="fill:#455A64;" d="M32,39h16l-8-10L32,39z"/>
<rect x="37" y="34" style="fill:#455A64;" width="6" height="14"/>
<path style="fill:#FFFFFF;" d="M18.801,25.602c0,1.098-0.402,2-0.902,2.5C17.301,28.699,16.5,29,15.5,29  c-1.102,0-1.898-0.398-2.5-1.102c-0.602-0.699-0.898-1.797-0.898-3.098v-1.602c0-1.301,0.297-2.398,0.898-3.098  C13.602,19.398,14.398,19,15.5,19s1.898,0.301,2.398,0.898c0.602,0.602,0.902,1.402,0.902,2.602h-2c0-0.699-0.102-1.199-0.301-1.398  c-0.199-0.301-0.5-0.402-1.102-0.402c-0.5,0-0.898,0.199-1.098,0.602c-0.199,0.398-0.301,1-0.301,1.801v1.797  c0,1,0.102,1.602,0.301,2c0.199,0.402,0.598,0.5,1.098,0.5c0.5,0,0.902-0.098,1.102-0.398s0.301-0.699,0.301-1.398H18.801z"/>
<path style="fill:#FFFFFF;" d="M24.98,26.391c0-0.406-0.105-0.715-0.313-0.922s-0.582-0.422-1.133-0.645  c-0.996-0.379-1.715-0.82-2.152-1.332c-0.438-0.508-0.656-1.105-0.656-1.801c0-0.836,0.297-1.512,0.895-2.02  c0.594-0.508,1.352-0.762,2.266-0.762c0.609,0,1.156,0.129,1.633,0.387c0.48,0.258,0.848,0.621,1.105,1.09s0.387,1.004,0.387,1.602  h-2.004c0-0.465-0.102-0.82-0.297-1.063c-0.199-0.246-0.484-0.367-0.859-0.367c-0.348,0-0.621,0.105-0.82,0.313  c-0.195,0.207-0.293,0.484-0.293,0.836c0,0.273,0.109,0.523,0.328,0.742c0.219,0.223,0.605,0.449,1.164,0.688  c0.969,0.352,1.676,0.781,2.113,1.293c0.441,0.512,0.66,1.16,0.66,1.949c0,0.863-0.273,1.543-0.828,2.027  c-0.551,0.488-1.301,0.73-2.246,0.73c-0.645,0-1.23-0.129-1.758-0.395s-0.941-0.645-1.242-1.137  c-0.297-0.492-0.445-1.07-0.445-1.742H22.5c0,0.574,0.113,0.992,0.336,1.25c0.223,0.262,0.586,0.391,1.094,0.391  C24.629,27.504,24.98,27.133,24.98,26.391z"/>
<path style="fill:#FFFFFF;" d="M32.066,26.266l1.676-7.219h2.242L33.113,29H31.02l-2.852-9.953h2.23L32.066,26.266z"/>
</svg>
