<?xml version="1.0" encoding="utf-8"?>
<!-- Generator: Adobe Illustrator 21.0.2, SVG Export Plug-In . SVG Version: 6.00 Build 0)  -->
<svg xmlns="http://www.w3.org/2000/svg" xmlns:xlink="http://www.w3.org/1999/xlink" version="1.1" id="Layer_1" x="0px" y="0px" viewBox="0 0 48 48" style="enable-background:new 0 0 48 48;" xml:space="preserve" width="48px" height="48px">
<g id="surface1">
	<path style="fill:#B0BEC5;" d="M6,8h36v27H6V8z"/>
	<path style="fill:#004D40;" d="M9,11h30v20H9V11z"/>
	<path style="fill:#78909C;" d="M21,35h6v3h-6V35z"/>
	<path style="fill:#78909C;" d="M33,38c-2,0-16,0-18,0s-2,2-2,2v1h22v-1C35,40,35,38,33,38z"/>
	<polygon style="fill:#1DE9B6;" points="27,28.9 19.9,16.9 16.8,22 9,22 9,20 15.7,20 20,13.1 27,25.1 30.1,20 38.9,20 38.9,22    31.2,22  "/>
</g>
</svg>
